<?xml version="1.0" encoding="utf-8"?>
<!-- Generator: Adobe Illustrator 24.1.1, SVG Export Plug-In . SVG Version: 6.00 Build 0)  -->
<svg version="1.1" id="Layer_1" xmlns="http://www.w3.org/2000/svg" xmlns:xlink="http://www.w3.org/1999/xlink" x="0px" y="0px"
	 viewBox="0 0 512 512" style="enable-background:new 0 0 512 512;" xml:space="preserve">
<style type="text/css">
	.st0{fill:#444444;}
</style>
<g>
	<path class="st0" d="M256,6.3C114.6,6.3,0,120.9,0,262.3c0,113.1,73.3,209.1,175.1,242.9c12.8,2.4,17.5-5.6,17.5-12.3
		c0-6.1-0.2-26.3-0.4-47.6C121,460.7,106,415.1,106,415.1c-11.7-29.6-28.4-37.4-28.4-37.4c-23.3-15.9,1.7-15.6,1.7-15.6
		c25.7,1.8,39.3,26.4,39.3,26.4c22.8,39.1,59.9,27.8,74.5,21.2c2.3-16.5,8.9-27.8,16.2-34.2C152.5,369,92.7,347,92.7,248.9
		c0-28,10-50.8,26.3-68.7c-2.6-6.5-11.4-32.5,2.5-67.8c0,0,21.5-6.9,70.4,26.2c20.4-5.7,42.3-8.5,64.1-8.6
		c21.8,0.1,43.7,2.9,64.1,8.6c48.8-33.2,70.4-26.2,70.4-26.2c14,35.3,5.2,61.3,2.6,67.8c16.4,17.9,26.3,40.7,26.3,68.7
		c0,98.4-59.9,120-116.9,126.4c9.2,7.9,17.4,23.5,17.4,47.4c0,34.2-0.3,61.8-0.3,70.3c0,6.8,4.7,14.8,17.6,12.3
		C438.7,471.3,512,375.4,512,262.3C512,121,397.4,6.3,256,6.3L256,6.3z"/>
</g>
</svg>
